<svg width="165" height="164" viewBox="0 0 165 164" fill="none" xmlns="http://www.w3.org/2000/svg">
<path fill-rule="evenodd" clip-rule="evenodd" d="M82.5 150.333C120.24 150.333 150.833 119.741 150.833 82C150.833 44.2595 120.24 13.6667 82.5 13.6667C44.7595 13.6667 14.1666 44.2595 14.1666 82C14.1666 119.741 44.7595 150.333 82.5 150.333ZM119.202 60.3725C119.521 60.0432 119.772 59.6528 119.937 59.2247C120.103 58.7966 120.18 58.3396 120.165 57.8809C120.15 57.4222 120.043 56.9712 119.85 56.5548C119.656 56.1385 119.381 55.7653 119.041 55.4576C118.7 55.1499 118.301 54.914 117.868 54.7639C117.434 54.6138 116.974 54.5527 116.516 54.5841C116.059 54.6155 115.612 54.7388 115.202 54.9467C114.793 55.1546 114.43 55.4428 114.135 55.7942L73.2066 101.021L50.6908 79.5263C50.0356 78.9002 49.1586 78.5599 48.2526 78.5804C47.3465 78.6009 46.4858 78.9805 45.8596 79.6357C45.2335 80.2908 44.8932 81.1679 44.9137 82.0739C44.9342 82.9799 45.3138 83.8407 45.969 84.4668L71.0268 108.383L73.5654 110.809L75.9195 108.206L119.202 60.3725Z" fill="#11FF00"/>
</svg>
