<svg width="89" height="83" viewBox="0 0 89 83" fill="none" xmlns="http://www.w3.org/2000/svg">
    <path fill-rule="evenodd" clip-rule="evenodd" d="M19.7927 54.4801C19.373 54.8948 18.6184 55.1008 17.5026 55.1008H13.8507C12.7484 55.1008 11.9909 54.9055 11.5655 54.5051C11.128 54.1124 10.9164 53.5032 10.9164 52.7066V49.1773C10.9164 48.3678 11.128 47.7799 11.5655 47.3795C11.9909 46.9812 12.7484 46.7838 13.8507 46.7838H17.5026C18.6184 46.7838 19.373 46.9926 19.7927 47.3987C20.1996 47.8106 20.397 48.4006 20.397 49.1773V52.7066C20.397 53.4804 20.1996 54.0733 19.7927 54.4801ZM17.903 49.9903C17.903 49.5421 17.8054 49.1994 17.6273 48.9884C17.4328 48.7846 17.0123 48.6735 16.3525 48.6735H14.9502C14.3488 48.6735 13.9398 48.7903 13.7331 49.0212C13.5358 49.2528 13.4246 49.5784 13.4246 49.9903V51.8857C13.4246 52.309 13.5358 52.6346 13.7331 52.8655C13.9398 53.0963 14.3488 53.2103 14.9502 53.2103H16.3525C17.0123 53.2103 17.4213 53.0963 17.6109 52.899C17.7833 52.6873 17.8838 52.3588 17.903 51.8999V49.9903ZM30.7205 54.4801C30.3144 54.8948 29.5462 55.1008 28.4468 55.1008H24.7949C23.6926 55.1008 22.9216 54.9055 22.4955 54.5051C22.0672 54.1124 21.8556 53.5032 21.8556 52.7066V49.1773C21.8556 48.3678 22.0672 47.7799 22.4955 47.3795C22.9216 46.9812 23.6926 46.7838 24.7949 46.7838H28.4468C29.5462 46.7838 30.3144 46.9926 30.7205 47.3987C31.1303 47.8106 31.3362 48.4006 31.3362 49.1773V49.9903H28.8472C28.8472 49.5421 28.7389 49.1994 28.5579 48.9884C28.3662 48.7846 27.943 48.6735 27.2832 48.6735H25.8915C25.2787 48.674 24.8733 48.7899 24.6752 49.0212C24.4636 49.2528 24.3659 49.5784 24.3659 49.9903V51.8857C24.3659 52.309 24.4636 52.6346 24.6752 52.8655C24.8733 53.0959 25.2787 53.2108 25.8915 53.2103H27.2832C27.943 53.2103 28.3662 53.0963 28.5579 52.899C28.7389 52.6873 28.8472 52.3424 28.8472 51.8857H31.3362V52.7066C31.3362 53.4809 31.131 54.0721 30.7205 54.4801ZM35.2802 55.1008H32.8055L32.7891 52.7066V49.1773L32.8055 46.7838H35.2802V49.9682H39.7586V46.7838H42.269V55.1008H39.7586V51.8579H35.2802V55.1008ZM46.9263 51.8579H46.2244C46.2301 52.3033 46.3384 52.6346 46.5393 52.8655C46.7493 53.0944 47.1548 53.2094 47.7557 53.2103H53.2025V55.1008H46.6562C45.5567 55.1008 44.7964 54.9055 44.3596 54.5079C43.9335 54.1124 43.7219 53.5032 43.7219 52.7066V49.1773C43.7219 48.3678 43.9335 47.7799 44.3596 47.3795C44.7964 46.9812 45.5567 46.7838 46.6562 46.7838H53.2025V48.6735H47.7557C47.1552 48.674 46.7498 48.7899 46.5393 49.0212C46.3384 49.2499 46.2301 49.5613 46.2244 49.9682H53.2025V51.8579H46.9263ZM72.3774 48.6735H68.9543V46.7838H78.4313V48.6735H74.8607V55.1008H72.3774V48.6735ZM66.7582 48.2702H62.9082V46.7474H60.4563V48.2702H56.5009C56.5009 48.2702 54.2628 48.345 54.2628 50.881C54.2628 53.4248 56.5593 53.4419 56.5593 53.4419H60.4563V55.0865H62.9082V53.4419H66.6969C66.6969 53.4419 69.007 53.4248 69.007 50.881C69.007 48.345 66.7582 48.2702 66.7582 48.2702ZM65.4385 51.7852H62.9082V50.0266H65.4221C65.4221 50.0266 66.2872 49.9119 66.2872 50.953C66.2872 51.8187 65.4385 51.7852 65.4385 51.7852ZM57.0603 50.953C57.0603 49.9119 57.926 50.0266 57.926 50.0266H60.4392V51.7852H57.9068C57.9068 51.7852 57.0603 51.8187 57.0603 50.953ZM8.84855 47.3987C8.43954 46.9926 7.68494 46.7838 6.56907 46.7838H0V55.1008H2.47471V52.2277H6.56907C7.68494 52.2277 8.43954 52.0303 8.84855 51.6128C9.25471 51.2038 9.4635 50.6052 9.4635 49.8342V49.1773C9.4635 48.4006 9.25471 47.8106 8.84855 47.3987ZM6.15722 50.338H2.47471V48.6735H6.15722C6.61041 48.6735 6.98949 49.044 6.98949 49.5058C6.98949 49.9682 6.61041 50.338 6.15722 50.338ZM89 52.7066V52.0474C89 51.2765 88.8026 50.6808 88.3993 50.2632C87.976 49.8513 87.2214 49.6561 86.1141 49.6561H82.0248V46.7838H79.5365V55.1008H86.1141C87.2214 55.1008 87.976 54.8948 88.3993 54.483C88.8026 54.0733 89 53.4804 89 52.7066ZM86.5288 52.3781C86.5288 52.8291 86.1555 53.2103 85.6966 53.2103H82.0248V51.538H85.6966C86.1555 51.538 86.5288 51.9163 86.5288 52.3781Z" fill="white"/>
    <path fill-rule="evenodd" clip-rule="evenodd" d="M49.1576 3.60982H53.0018V7.21751H56.8454V10.8829H60.7003V23.0719L54.7248 28.3798L53.0018 30.0693V42.9758H36.6992V30.0799L34.8701 28.285L29 23.0719V10.8829H32.8471V7.21751H36.6992V3.60982H40.5456V0H49.1576V3.60982Z" fill="white"/>
    <path fill-rule="evenodd" clip-rule="evenodd" d="M39.1985 24.1123H42.4442V40.2923H39.1985V24.1123ZM43.0456 20.7725H46.2913V40.293H43.0456V20.7725ZM46.8891 24.1123H50.1348V40.2923H46.8891V24.1123Z" fill="#FFCC00"/>
    <path fill-rule="evenodd" clip-rule="evenodd" d="M34.7421 24.7472L31.5 21.8663V13.5664H34.7421V24.7472ZM38.5892 28.357L35.3436 25.1733V9.90028H38.5892V28.357ZM39.1985 6.29046H42.4442V23.6063H39.1985V6.29046ZM43.0456 2.68277H46.2913V20.2046H43.0456V2.68277ZM54.5912 24.7472L57.834 21.8663V13.5664H54.5912V24.7472ZM50.7334 28.357L53.9791 25.1733V9.90028H50.7334V28.357ZM46.8891 6.29046H50.1348V23.6063H46.8891V6.29046Z" fill="black"/>
    <path fill-rule="evenodd" clip-rule="evenodd" d="M26.1727 80.708V79.1553C26.1727 77.463 27.2273 77.1345 28.7137 77.1345C30.2001 77.1345 31.2547 77.463 31.2547 79.1553V80.708C31.2547 82.4003 30.2001 82.7509 28.7137 82.7509C27.2273 82.7509 26.1727 82.4003 26.1727 80.708ZM29.7462 80.5469V79.3078C29.7462 78.4955 29.4761 78.4092 28.7137 78.4092C27.9512 78.4092 27.6812 78.4898 27.6812 79.3078V80.5469C27.6812 81.3678 27.9512 81.4761 28.7137 81.4761C29.4761 81.4761 29.7462 81.3678 29.7462 80.5469ZM34.4975 77.1843L35.5471 80.6331H35.597L36.5939 77.1843H38.9731V82.6789H37.5095L37.6541 78.4677L37.59 78.4506L36.2119 82.6789H34.9457L33.5626 78.4506L33.4957 78.4677L33.6403 82.6789H32.176V77.1843H34.4975ZM44.8517 77.1843V82.6789H43.3881V78.4591H41.4756V82.6789H40.0113V77.1843H44.8517ZM47.3656 81.7326L47.0927 82.6789H45.57L47.2181 77.1843H49.4449L51.1144 82.6789H49.6201L49.333 81.7326H47.3656ZM48.3589 78.2838H48.3454L47.6799 80.6716H49.0351L48.3589 78.2838ZM53.2969 79.2493H55.2095V77.1843H56.6731V82.6789H55.2095V80.5241H53.2969V82.6789H51.8326V77.1843H53.2969V79.2493ZM59.095 80.8027H59.1478L60.8593 77.1843H62.7882V82.6789H61.3966V79.0605H61.3439L59.6957 82.6789H57.7055V77.1843H59.095V80.8027ZM66.8776 80.7443H66.19L65.2238 82.6789H63.5457L64.7399 80.569C64.0295 80.2683 63.7573 79.8066 63.7573 78.9209C63.7573 77.7409 64.2276 77.1843 65.5302 77.1843H68.3412V82.6789H66.8776V80.7443ZM66.8776 78.3864H65.7803C65.3634 78.3864 65.2238 78.5033 65.2238 78.9714C65.2238 79.3968 65.4717 79.5422 65.8893 79.5422H66.8776V78.3864ZM22.1282 79.2493H22.5679L23.9787 77.1843H25.7523L23.8177 79.8814L25.9133 82.6789H24.0956L22.5679 80.5241H22.1282V82.6789H20.6611V77.1843H22.1282V79.2493ZM8.21052 70.5654H10.5548V71.5815H8.21052V72.6532H10.7608V73.8524H6.74692V68.3607H10.7073V69.5607H8.21052V70.5654ZM14.2673 73.8524V73.2817H13.5134C12.0633 73.2817 11.5204 72.8057 11.5204 71.1055C11.5204 69.4381 12.069 68.9094 13.5191 68.9094H14.2673V68.3607H15.7316V68.9094H16.4719C17.9277 68.9094 18.4792 69.4296 18.4792 71.1055C18.4792 72.7978 17.9277 73.2817 16.4719 73.2817H15.7316V73.8524H14.2673ZM14.2673 70.1115H13.7614C13.2041 70.1115 13.0288 70.3901 13.0288 71.1055C13.0288 71.8594 13.2041 72.0796 13.7471 72.0796H14.2673V70.1115ZM15.7316 72.0796H16.2297C16.7698 72.0796 16.97 71.8594 16.97 71.1055C16.97 70.3901 16.7869 70.1115 16.2297 70.1115H15.7316V72.0796ZM22.0085 73.8524H20.5442V69.6327H19.0635V68.3607H23.4864V69.6327H22.0085V73.8524ZM25.7216 70.5654H28.0652V71.5815H25.7216V72.6532H28.2712V73.8524H24.2573V68.3607H28.2185V69.5607H25.7216V70.5654ZM32.9584 71.0271L34.5923 73.8524H32.8857L31.7948 71.7368L30.7096 73.8524H28.9894L30.6369 71.0271L29.0921 68.3607H30.8043L31.7948 70.3759L32.7888 68.3607H34.4754L32.9584 71.0271ZM36.7022 71.9791H36.7521L38.4665 68.3607H40.3932V73.8524H39.0009V70.2341H38.951L37.3036 73.8524H35.3105V68.3607H36.7022V71.9791ZM43.7444 68.3607L44.7933 71.8095H44.8439L45.84 68.3607H48.22V73.8524H46.7557L46.9003 69.6412L46.8369 69.627L45.4588 73.8524H44.1926L42.8088 69.627L42.7418 69.6412L42.8872 73.8524H41.4257V68.3607H43.7444ZM50.6498 71.9791H50.6997L52.4148 68.3607H54.3408V73.8524H52.9492V70.2341H52.8958L51.2483 73.8524H49.2582V68.3607H50.6498V71.9791ZM56.74 68.3607V69.7139C56.74 70.368 56.9096 70.5291 57.5915 70.5291C57.9649 70.5291 58.1623 70.507 58.4409 70.4264V68.3607H59.9045V73.8524H58.4409V71.6563C58.1317 71.7511 57.6699 71.801 57.2467 71.801C55.7603 71.801 55.2757 71.2445 55.2757 69.9277V68.3607H56.74ZM62.3985 70.5654H64.7421V71.5815H62.3985V72.6532H64.948V73.8524H60.9349V68.3607H64.8981V69.5607H62.3985V70.5654ZM69.1093 70.3317V70.1172C69.1093 69.6804 68.706 69.5828 68.2079 69.5828C67.3728 69.5828 67.2923 69.8471 67.2923 70.6324V71.4867C67.2923 72.3076 67.3279 72.6532 68.2079 72.6532C68.8143 72.6532 69.1093 72.6083 69.1093 71.9627V71.801H70.6185V71.9627C70.6185 73.5075 70.0841 73.9251 68.369 73.9251C66.8748 73.9251 65.7831 73.8246 65.7831 71.8181V70.3958C65.7831 68.5809 66.7579 68.308 68.369 68.308C69.8276 68.308 70.6185 68.7113 70.6185 70.1172V70.3317H69.1093ZM72.9728 70.4264H73.4125L74.8269 68.3607H76.5997L74.6652 71.0549L76.7615 73.8524H74.9438L73.4125 71.6984H72.9728V73.8524H71.5092V68.3607H72.9728V70.4264ZM79.0381 72.909L78.7681 73.8524H77.2425L78.8906 68.3607H81.1174L82.7876 73.8524H81.2927L81.0091 72.909H79.0381ZM80.0343 69.4602H80.0179L79.3524 71.8459H80.7084L80.0343 69.4602ZM86.6589 71.9178H85.9713L85.0058 73.8524H83.327L84.5213 71.7425C83.8116 71.4418 83.5387 70.9829 83.5387 70.0951C83.5387 68.9172 84.0089 68.3607 85.3122 68.3607H88.1261V73.8524H86.6589V71.9178ZM86.6589 69.5607H85.5595C85.1419 69.5607 85.0058 69.6775 85.0058 70.1478C85.0058 70.5711 85.2538 70.7186 85.6713 70.7186H86.6589V69.5607ZM2.34047 70.4264H4.25012V68.3607H5.71656V73.8524H4.25012V71.6984H2.34047V73.8524H0.874023V68.3607H2.34047V70.4264ZM21.2845 64.0768L21.0116 65.021H19.4896L21.137 59.5293H23.3638L25.034 65.021H23.5391L23.2526 64.0768H21.2845ZM27.2159 61.5943H29.1284V59.5293H30.5927V65.021H29.1284V62.869H27.2159V65.021H25.7523V59.5293H27.2159V61.5943ZM35.5193 59.5293V60.7285H33.0895V65.021H31.6223V59.5293H35.5193ZM37.2779 64.0768L37.0086 65.021H35.4858L37.1333 59.5293H39.3572L41.0274 65.021H39.5353L39.2489 64.0768H37.2779ZM38.2748 60.6288H38.2605L37.5929 63.0137H38.9482L38.2748 60.6288ZM43.2128 65.021H41.7485V59.5293H44.5068C45.8707 59.5293 46.383 60.0359 46.383 61.4689C46.383 63.0137 46.0374 63.4982 44.5068 63.4982H43.2128V65.021ZM43.2128 62.2983H44.2147C44.7712 62.2983 44.8745 62.1957 44.8745 61.486C44.8745 60.9209 44.7854 60.7285 44.2147 60.7285H43.2128V62.2983ZM50.4966 61.4995V61.2879C50.4966 60.8482 50.0933 60.7506 49.5952 60.7506C48.7601 60.7506 48.6789 61.0157 48.6789 61.8002V62.6574C48.6789 63.4762 48.7152 63.821 49.5952 63.821C50.2016 63.821 50.4966 63.7769 50.4966 63.1334V62.9724H52.0051V63.1334C52.0051 64.6782 51.4707 65.0929 49.7562 65.0929C48.262 65.0929 47.1704 64.9932 47.1704 62.9859V61.5665C47.1704 59.7488 48.1444 59.4787 49.7562 59.4787C51.2149 59.4787 52.0051 59.8827 52.0051 61.2879V61.4995H50.4966ZM54.3629 61.5943H54.7997L56.2142 59.5293H57.987L56.0524 62.2235L58.1488 65.021H56.331L54.7997 62.869H54.3629V65.021H52.8958V59.5293H54.3629V61.5943ZM60.4225 64.0768L60.1525 65.021H58.6297L60.2779 59.5293H62.5046L64.1749 65.021H62.6799L62.3935 64.0768H60.4225ZM61.4187 60.6288H61.4051L60.7396 63.0137H62.0928L61.4187 60.6288ZM68.0462 63.0864H67.3586L66.3902 65.021H64.7143L65.9085 62.9111C65.1988 62.6132 64.9259 62.1508 64.9259 61.2658C64.9259 60.0858 65.3962 59.5293 66.6995 59.5293H69.5105V65.021H68.0462V63.0864ZM68.0462 60.7285H66.9467C66.5292 60.7285 66.3902 60.8482 66.3902 61.3157C66.3902 61.7418 66.6403 61.8864 67.0579 61.8864H68.0462V60.7285ZM22.2786 60.6288H22.2643L21.5995 63.0137H22.9519L22.2786 60.6288Z" fill="white"/>
</svg>
