<svg width="167" height="155" viewBox="0 0 167 155" fill="none" xmlns="http://www.w3.org/2000/svg">
    <path fill-rule="evenodd" clip-rule="evenodd" d="M37.0359 101.942C36.2506 102.718 34.8386 103.104 32.7506 103.104H25.9173C23.8546 103.104 22.4373 102.738 21.6413 101.989C20.8226 101.254 20.4266 100.114 20.4266 98.6237V92.0197C20.4266 90.5051 20.8226 89.4051 21.6413 88.6557C22.4373 87.9104 23.8546 87.5411 25.9173 87.5411H32.7506C34.8386 87.5411 36.2506 87.9318 37.0359 88.6917C37.7972 89.4624 38.1666 90.5664 38.1666 92.0197V98.6237C38.1666 100.072 37.7972 101.181 37.0359 101.942ZM33.4999 93.5411C33.4999 92.7024 33.3173 92.0611 32.9839 91.6664C32.6199 91.2851 31.8333 91.0771 30.5986 91.0771H27.9746C26.8493 91.0771 26.0839 91.2957 25.6973 91.7277C25.3279 92.1611 25.1199 92.7704 25.1199 93.5411V97.0877C25.1199 97.8797 25.3279 98.4891 25.6973 98.9211C26.0839 99.3531 26.8493 99.5664 27.9746 99.5664H30.5986C31.8333 99.5664 32.5986 99.353 32.9532 98.9837C33.2759 98.5877 33.4639 97.9731 33.4999 97.1144V93.5411ZM57.4839 101.942C56.7239 102.718 55.2865 103.104 53.2292 103.104H46.3959C44.3332 103.104 42.8905 102.738 42.0932 101.989C41.2919 101.254 40.8959 100.114 40.8959 98.6237V92.0197C40.8959 90.5051 41.2919 89.4051 42.0932 88.6557C42.8905 87.9104 44.3332 87.5411 46.3959 87.5411H53.2292C55.2865 87.5411 56.7239 87.9318 57.4839 88.6917C58.2505 89.4624 58.6359 90.5664 58.6359 92.0197V93.5411H53.9785C53.9785 92.7024 53.7759 92.0611 53.4372 91.6664C53.0785 91.2851 52.2865 91.0771 51.0519 91.0771H48.4479C47.3012 91.078 46.5425 91.2948 46.1719 91.7277C45.7759 92.1611 45.5932 92.7704 45.5932 93.5411V97.0877C45.5932 97.8797 45.7759 98.4891 46.1719 98.9211C46.5425 99.3522 47.3012 99.5673 48.4479 99.5664H51.0519C52.2865 99.5664 53.0785 99.353 53.4372 98.9837C53.7759 98.5877 53.9785 97.9424 53.9785 97.0877H58.6359V98.6237C58.6359 100.073 58.2519 101.179 57.4839 101.942ZM66.0158 103.104H61.3852L61.3545 98.6237V92.0197L61.3852 87.5411H66.0158V93.4997H74.3958V87.5411H79.0931V103.104H74.3958V97.0357H66.0158V103.104ZM87.8078 97.0357H86.4945C86.5051 97.8691 86.7078 98.4891 87.0838 98.9211C87.4767 99.3495 88.2353 99.5646 89.3598 99.5664H99.5518V103.104H87.3025C85.2451 103.104 83.8225 102.738 83.0051 101.994C82.2078 101.254 81.8118 100.114 81.8118 98.6237V92.0197C81.8118 90.5051 82.2078 89.4051 83.0051 88.6557C83.8225 87.9104 85.2451 87.5411 87.3025 87.5411H99.5518V91.0771H89.3598C88.2362 91.078 87.4776 91.2948 87.0838 91.7277C86.7078 92.1557 86.5051 92.7384 86.4945 93.4997H99.5518V97.0357H87.8078ZM135.432 91.0771H129.026V87.5411H146.76V91.0771H140.078V103.104H135.432V91.0771ZM124.917 90.3224H117.713V87.4731H113.125V90.3224H105.724C105.724 90.3224 101.536 90.4624 101.536 95.2077C101.536 99.9677 105.833 99.9997 105.833 99.9997H113.125V103.077H117.713V99.9997H124.802C124.802 99.9997 129.125 99.9677 129.125 95.2077C129.125 90.4624 124.917 90.3224 124.917 90.3224ZM122.448 96.8997H117.713V93.6091H122.417C122.417 93.6091 124.036 93.3944 124.036 95.3424C124.036 96.9624 122.448 96.8997 122.448 96.8997ZM106.77 95.3424C106.77 93.3944 108.39 93.6091 108.39 93.6091H113.093V96.8997H108.354C108.354 96.8997 106.77 96.9624 106.77 95.3424ZM16.5573 88.6917C15.792 87.9318 14.38 87.5411 12.292 87.5411H0V103.104H4.63064V97.7277H12.292C14.38 97.7277 15.792 97.3584 16.5573 96.5771C17.3173 95.8117 17.708 94.6917 17.708 93.2491V92.0197C17.708 90.5664 17.3173 89.4624 16.5573 88.6917ZM11.5213 94.1917H4.63064V91.0771H11.5213C12.3693 91.0771 13.0786 91.7704 13.0786 92.6344C13.0786 93.4997 12.3693 94.1917 11.5213 94.1917ZM166.536 98.6237V97.3904C166.536 95.9477 166.166 94.8331 165.412 94.0517C164.62 93.2811 163.208 92.9157 161.136 92.9157H153.484V87.5411H148.828V103.104H161.136C163.208 103.104 164.62 102.718 165.412 101.948C166.166 101.181 166.536 100.072 166.536 98.6237ZM161.912 98.009C161.912 98.853 161.213 99.5664 160.354 99.5664H153.484V96.4371H160.354C161.213 96.4371 161.912 97.1451 161.912 98.009Z" fill="black"/>
    <path fill-rule="evenodd" clip-rule="evenodd" d="M91.3275 6.75465H98.5208V13.5053H105.713V20.364H112.926V43.1719L101.745 53.1039L98.5208 56.2652V80.4158H68.0155V56.2852L64.5928 52.9265L53.6089 43.1719V20.364H60.8075V13.5053H68.0155V6.75465H75.2128V0H91.3275V6.75465Z" fill="white"/>
    <path fill-rule="evenodd" clip-rule="evenodd" d="M73.0356 45.1185H79.109V75.3944H73.0356V45.1185ZM80.2343 38.8692H86.3076V75.3958H80.2343V38.8692ZM87.4263 45.1185H93.4996V75.3944H87.4263V45.1185Z" fill="#FFD300"/>
    <path fill-rule="evenodd" clip-rule="evenodd" d="M64.697 46.3065L58.6304 40.9159V25.3853H64.697V46.3065ZM71.8957 53.0612L65.8224 47.1038V18.5253H71.8957V53.0612ZM73.0357 11.7706H79.109V44.1719H73.0357V11.7706ZM80.2343 5.01996H86.3076V37.8065H80.2343V5.01996ZM101.838 46.3065L107.906 40.9159V25.3853H101.838V46.3065ZM94.6196 53.0612L100.693 47.1038V18.5253H94.6196V53.0612ZM87.4263 11.7706H93.4996V44.1719H87.4263V11.7706Z" fill="black"/>
    <path fill-rule="evenodd" clip-rule="evenodd" d="M48.9743 151.02V148.114C48.9743 144.948 50.9476 144.333 53.7289 144.333C56.5103 144.333 58.4836 144.948 58.4836 148.114V151.02C58.4836 154.186 56.5103 154.842 53.7289 154.842C50.9476 154.842 48.9743 154.186 48.9743 151.02ZM55.6609 150.718V148.4C55.6609 146.88 55.1556 146.718 53.7289 146.718C52.3023 146.718 51.7969 146.869 51.7969 148.4V150.718C51.7969 152.254 52.3023 152.457 53.7289 152.457C55.1556 152.457 55.6609 152.254 55.6609 150.718ZM64.5516 144.426L66.5156 150.88H66.6089L68.4742 144.426H72.9262V154.708H70.1876L70.4582 146.828L70.3382 146.796L67.7596 154.708H65.3902L62.8023 146.796L62.6769 146.828L62.9476 154.708H60.2076V144.426H64.5516ZM83.9262 144.426V154.708H81.1875V146.812H77.6089V154.708H74.8689V144.426H83.9262ZM88.6302 152.937L88.1195 154.708H85.2702L88.3542 144.426H92.5208L95.6448 154.708H92.8488L92.3115 152.937H88.6302ZM90.4888 146.484H90.4635L89.2182 150.952H91.7542L90.4888 146.484ZM99.7288 148.29H103.307V144.426H106.046V154.708H103.307V150.676H99.7288V154.708H96.9888V144.426H99.7288V148.29ZM110.578 151.197H110.677L113.879 144.426H117.489V154.708H114.885V147.937H114.786L111.702 154.708H107.978V144.426H110.578V151.197ZM125.141 151.088H123.854L122.046 154.708H118.906L121.141 150.76C119.811 150.197 119.302 149.333 119.302 147.676C119.302 145.468 120.182 144.426 122.619 144.426H127.879V154.708H125.141V151.088ZM125.141 146.676H123.087C122.307 146.676 122.046 146.894 122.046 147.77C122.046 148.566 122.51 148.838 123.291 148.838H125.141V146.676ZM41.4063 148.29H42.229L44.8689 144.426H48.1876L44.5676 149.473L48.489 154.708H45.0876L42.229 150.676H41.4063V154.708H38.661V144.426H41.4063V148.29ZM15.3637 132.041H19.7504V133.942H15.3637V135.948H20.1357V138.192H12.625V127.916H20.0357V130.161H15.3637V132.041ZM26.697 138.192V137.124H25.2863C22.573 137.124 21.557 136.233 21.557 133.052C21.557 129.932 22.5837 128.942 25.297 128.942H26.697V127.916H29.437V128.942H30.8223C33.5463 128.942 34.5783 129.916 34.5783 133.052C34.5783 136.218 33.5463 137.124 30.8223 137.124H29.437V138.192H26.697ZM26.697 131.192H25.7503C24.7077 131.192 24.3797 131.713 24.3797 133.052C24.3797 134.462 24.7077 134.874 25.7237 134.874H26.697V131.192ZM29.437 134.874H30.369C31.3797 134.874 31.7543 134.462 31.7543 133.052C31.7543 131.713 31.4116 131.192 30.369 131.192H29.437V134.874ZM41.1823 138.192H38.4423V130.296H35.6716V127.916H43.9476V130.296H41.1823V138.192ZM48.1303 132.041H52.5156V133.942H48.1303V135.948H52.9009V138.192H45.3903V127.916H52.8023V130.161H48.1303V132.041ZM61.6716 132.905L64.7289 138.192H61.5356L59.4943 134.233L57.4636 138.192H54.2449L57.3276 132.905L54.4369 127.916H57.6409L59.4943 131.686L61.3543 127.916H64.5102L61.6716 132.905ZM68.6769 134.686H68.7702L71.9782 127.916H75.5835V138.192H72.9782V131.421H72.8849L69.8022 138.192H66.0729V127.916H68.6769V134.686ZM81.8542 127.916L83.8169 134.369H83.9115L85.7755 127.916H90.2288V138.192H87.4889L87.7595 130.312L87.6409 130.285L85.0622 138.192H82.6929L80.1035 130.285L79.9782 130.312L80.2502 138.192H77.5155V127.916H81.8542ZM94.7755 134.686H94.8688L98.0782 127.916H101.682V138.192H99.0782V131.421H98.9781L95.8955 138.192H92.1715V127.916H94.7755V134.686ZM106.171 127.916V130.448C106.171 131.672 106.489 131.973 107.765 131.973C108.463 131.973 108.833 131.932 109.354 131.781V127.916H112.093V138.192H109.354V134.082C108.775 134.26 107.911 134.353 107.119 134.353C104.338 134.353 103.431 133.312 103.431 130.848V127.916H106.171ZM116.759 132.041H121.145V133.942H116.759V135.948H121.53V138.192H114.021V127.916H121.437V130.161H116.759V132.041ZM129.317 131.604V131.202C129.317 130.385 128.562 130.202 127.63 130.202C126.067 130.202 125.917 130.697 125.917 132.166V133.765C125.917 135.301 125.983 135.948 127.63 135.948C128.765 135.948 129.317 135.864 129.317 134.656V134.353H132.141V134.656C132.141 137.546 131.141 138.328 127.931 138.328C125.135 138.328 123.093 138.14 123.093 134.385V131.724C123.093 128.328 124.917 127.817 127.931 127.817C130.661 127.817 132.141 128.572 132.141 131.202V131.604H129.317ZM136.546 131.781H137.369L140.015 127.916H143.333L139.713 132.957L143.635 138.192H140.234L137.369 134.161H136.546V138.192H133.807V127.916H136.546V131.781ZM147.895 136.426L147.39 138.192H144.535L147.619 127.916H151.786L154.911 138.192H152.114L151.583 136.426H147.895ZM149.759 129.973H149.729L148.483 134.437H151.021L149.759 129.973ZM162.155 134.572H160.869L159.062 138.192H155.921L158.155 134.244C156.827 133.681 156.317 132.822 156.317 131.161C156.317 128.957 157.197 127.916 159.635 127.916H164.901V138.192H162.155V134.572ZM162.155 130.161H160.098C159.317 130.161 159.062 130.38 159.062 131.26C159.062 132.052 159.526 132.328 160.307 132.328H162.155V130.161ZM4.37973 131.781H7.95305V127.916H10.697V138.192H7.95305V134.161H4.37973V138.192H1.63574V127.916H4.37973V131.781ZM39.8276 119.9L39.317 121.666H36.469L39.5516 111.39H43.7183L46.8436 121.666H44.0463L43.5103 119.9H39.8276ZM50.9263 115.254H54.5049V111.39H57.2449V121.666H54.5049V117.64H50.9263V121.666H48.1876V111.39H50.9263V115.254ZM66.4636 111.39V113.634H61.9169V121.666H59.1716V111.39H66.4636ZM69.7542 119.9L69.2502 121.666H66.4009L69.4836 111.39H73.6449L76.7702 121.666H73.9782L73.4422 119.9H69.7542ZM71.6196 113.448H71.5929L70.3436 117.91H72.8796L71.6196 113.448ZM80.8595 121.666H78.1195V111.39H83.2809C85.8328 111.39 86.7915 112.338 86.7915 115.02C86.7915 117.91 86.1449 118.817 83.2809 118.817H80.8595V121.666ZM80.8595 116.572H82.7342C83.7755 116.572 83.9689 116.38 83.9689 115.052C83.9689 113.994 83.8022 113.634 82.7342 113.634H80.8595V116.572ZM94.4888 115.077V114.681C94.4888 113.858 93.7342 113.676 92.8022 113.676C91.2395 113.676 91.0875 114.172 91.0875 115.64V117.244C91.0875 118.776 91.1555 119.421 92.8022 119.421C93.9368 119.421 94.4888 119.338 94.4888 118.134V117.833H97.3115V118.134C97.3115 121.025 96.3115 121.801 93.1035 121.801C90.3075 121.801 88.2649 121.614 88.2649 117.858V115.202C88.2649 111.801 90.0875 111.296 93.1035 111.296C95.8328 111.296 97.3115 112.052 97.3115 114.681V115.077H94.4888ZM101.723 115.254H102.541L105.187 111.39H108.505L104.885 116.432L108.807 121.666H105.406L102.541 117.64H101.723V121.666H98.9781V111.39H101.723V115.254ZM113.062 119.9L112.557 121.666H109.707L112.791 111.39H116.958L120.083 121.666H117.286L116.75 119.9H113.062ZM114.926 113.448H114.901L113.655 117.91H116.187L114.926 113.448ZM127.327 118.046H126.041L124.229 121.666H121.093L123.327 117.718C121.999 117.161 121.489 116.296 121.489 114.64C121.489 112.432 122.369 111.39 124.807 111.39H130.067V121.666H127.327V118.046ZM127.327 113.634H125.27C124.489 113.634 124.229 113.858 124.229 114.733C124.229 115.53 124.697 115.801 125.478 115.801H127.327V113.634ZM41.6876 113.448H41.661L40.417 117.91H42.9476L41.6876 113.448Z" fill="#1B1918"/>
</svg>
